<svg width="25" height="25" viewBox="0 0 25 25" fill="none" xmlns="http://www.w3.org/2000/svg">
<path d="M21.3368 12.5C21.3368 16.9328 17.5002 20.5776 12.8341 20.5776C8.11615 20.5776 4.33142 16.9821 4.33142 12.5C4.33142 8.01798 8.11615 4.42249 12.8341 4.42249C17.5002 4.42249 21.3368 8.01798 21.3368 12.5Z" fill="url(#paint0_linear_311_16)"/>
<path d="M21.3368 12.5C21.3368 16.9328 17.5002 20.5776 12.8341 20.5776C8.11615 20.5776 4.33142 16.9821 4.33142 12.5C4.33142 8.01798 8.11615 4.42249 12.8341 4.42249C17.5002 4.42249 21.3368 8.01798 21.3368 12.5Z" fill="#0F2E9C"/>
<path d="M12.409 0.170898C5.61322 0.170898 0.0800781 5.6669 0.0800781 12.4998C0.0800781 19.2955 5.57608 24.8287 12.409 24.8287C19.2418 24.8287 24.7378 19.2955 24.7378 12.4998C24.7378 5.70404 19.2047 0.170898 12.409 0.170898ZM12.409 19.3326C11.5177 19.3326 10.8121 18.6271 10.8121 17.7358H14.0429C14.0058 18.5899 13.3002 19.3326 12.409 19.3326ZM17.8307 16.1019C17.8307 16.6961 17.3479 16.7332 16.7538 16.7332H8.06414C7.46998 16.7332 6.98722 16.6961 6.98722 16.1019V15.9905C6.98722 15.582 7.21003 15.2106 7.61852 15.025L7.95273 12.0913C7.95273 9.97458 9.47528 8.15496 11.4806 7.70934V6.59528C11.4806 6.07539 11.8891 5.6669 12.409 5.6669C12.9288 5.6669 13.3373 6.07539 13.3373 6.59528V7.70934C15.3426 8.11783 16.8652 9.93745 16.8652 12.0913L17.1994 15.025C17.5336 15.2106 17.8307 15.582 17.8307 15.9905V16.1019Z" fill="white"/>
<path d="M15.9357 11.5241C17.3445 11.5241 18.4865 10.3821 18.4865 8.97329C18.4865 7.56452 17.3445 6.42249 15.9357 6.42249C14.5269 6.42249 13.3849 7.56452 13.3849 8.97329C13.3849 10.3821 14.5269 11.5241 15.9357 11.5241Z" fill="#FF5252"/>
<defs>
<linearGradient id="paint0_linear_311_16" x1="4.33142" y1="12.5" x2="21.3368" y2="12.5" gradientUnits="userSpaceOnUse">
<stop offset="4.79233e-09" stop-color="#008BC8"/>
<stop offset="1" stop-color="#004B6B"/>
</linearGradient>
</defs>
</svg>
